<svg width="30" height="30" viewBox="0 0 30 30" fill="none" xmlns="http://www.w3.org/2000/svg">
<path d="M21.4285 5.35706H3.21428C1.43908 5.35706 0 6.79614 0 8.57134V26.7856C0 28.5608 1.43908 29.9999 3.21428 29.9999H21.4285C23.2037 29.9999 24.6428 28.5608 24.6428 26.7856V8.57134C24.6428 6.79614 23.2037 5.35706 21.4285 5.35706ZM22.5 26.7857C22.5 27.3774 22.0203 27.8571 21.4285 27.8571H3.21428C2.62253 27.8571 2.14283 27.3774 2.14283 26.7857V8.57134C2.14283 7.97958 2.62253 7.49989 3.21428 7.49989H21.4285C22.0203 7.49989 22.5 7.97958 22.5 8.57134V26.7857Z" fill="#858585"/>
<path d="M26.7856 0H7.49993C5.72473 0 4.28564 1.43908 4.28564 3.21428C4.28564 3.80604 4.76534 4.28573 5.35709 4.28573C5.94885 4.28573 6.42848 3.80604 6.42848 3.21428C6.42848 2.62253 6.90817 2.14283 7.49993 2.14283H26.7856C27.3774 2.14283 27.8571 2.62253 27.8571 3.21428V22.5C27.8571 23.0917 27.3774 23.5714 26.7856 23.5714C26.1939 23.5714 25.7142 24.0511 25.7142 24.6429C25.7142 25.2346 26.1939 25.7143 26.7856 25.7143C28.5608 25.7143 29.9999 24.2752 29.9999 22.5V3.21428C29.9999 1.43908 28.5608 0 26.7856 0Z" fill="#858585"/>
</svg>
